<svg xmlns="http://www.w3.org/2000/svg" width="30" height="30" viewBox="0 0 1000 1000">
<g transform="matrix(1 0 0 1 500 500)" id="429403">
<g style="">
		<g transform="matrix(18.9394 0 0 18.9394 0.0001 0.0001)" id="657780">
<path style="stroke: none; stroke-width: 1; stroke-dasharray: none; stroke-linecap: butt; stroke-dashoffset: 0; stroke-linejoin: miter; stroke-miterlimit: 4; is-custom-font: none; font-file-url: none; fill: rgb(255,255,255); fill-rule: nonzero; opacity: 1;" transform=" translate(-24.5, -24.5)" d="M 48 37 C 48 43 43 48 37 48 H 12 C 6 48 1 43 1 37 V 12 C 1 6 6 1 12 1 H 37 C 43 1 48 6 48 12 V 37 Z" stroke-linecap="round"/>
</g>
		<g transform="matrix(18.9394 0 0 18.9394 0.0001 5.103)" id="594303">
<radialGradient id="SVGID_5" gradientUnits="userSpaceOnUse" gradientTransform="matrix(1 0 0 1 0 0)" cx="19.38" cy="42.035" r="44.899" fx="19.38" fy="42.035">
<stop offset="0%" style="stop-color:rgb(255,221,85);stop-opacity: 1"/>
<stop offset="32.800000000000004%" style="stop-color:rgb(255,84,63);stop-opacity: 1"/>
<stop offset="34.8%" style="stop-color:rgb(252,82,69);stop-opacity: 1"/>
<stop offset="50.4%" style="stop-color:rgb(230,71,113);stop-opacity: 1"/>
<stop offset="64.3%" style="stop-color:rgb(213,62,145);stop-opacity: 1"/>
<stop offset="76.1%" style="stop-color:rgb(204,57,164);stop-opacity: 1"/>
<stop offset="84.1%" style="stop-color:rgb(200,55,171);stop-opacity: 1"/>
</radialGradient>
<path style="stroke: none; stroke-width: 1; stroke-dasharray: none; stroke-linecap: butt; stroke-dashoffset: 0; stroke-linejoin: miter; stroke-miterlimit: 4; is-custom-font: none; font-file-url: none; fill: url(#SVGID_5); fill-rule: nonzero; opacity: 1;" transform=" translate(-23.9995, -23.9995)" d="M 34.017 41.99 l -20 0.019 c -4.4 0.004 -8.003 -3.592 -8.008 -7.992 l -0.019 -20 c -0.004 -4.4 3.592 -8.003 7.992 -8.008 l 20 -0.019 c 4.4 -0.004 8.003 3.592 8.008 7.992 l 0.019 20 C 42.014 38.383 38.417 41.986 34.017 41.99 z" stroke-linecap="round"/>
</g>
		<g transform="matrix(18.9394 0 0 18.9394 0.0001 5.103)" id="803737">
<radialGradient id="SVGID_6" gradientUnits="userSpaceOnUse" gradientTransform="matrix(1 0 0 0.6663 0 1.849)" cx="11.786" cy="5.54" r="29.813" fx="11.786" fy="5.54">
<stop offset="0%" style="stop-color:rgb(65,104,201);stop-opacity: 1"/>
<stop offset="99.9%" style="stop-color:rgb(65,104,201);stop-opacity: 0"/>
</radialGradient>
<path style="stroke: none; stroke-width: 1; stroke-dasharray: none; stroke-linecap: butt; stroke-dashoffset: 0; stroke-linejoin: miter; stroke-miterlimit: 4; is-custom-font: none; font-file-url: none; fill: url(#SVGID_6); fill-rule: nonzero; opacity: 1;" transform=" translate(-23.9995, -23.9995)" d="M 34.017 41.99 l -20 0.019 c -4.4 0.004 -8.003 -3.592 -8.008 -7.992 l -0.019 -20 c -0.004 -4.4 3.592 -8.003 7.992 -8.008 l 20 -0.019 c 4.4 -0.004 8.003 3.592 8.008 7.992 l 0.019 20 C 42.014 38.383 38.417 41.986 34.017 41.99 z" stroke-linecap="round"/>
</g>
		<g transform="matrix(18.9394 0 0 18.9394 0 5.1029)" id="985265">
<path style="stroke: none; stroke-width: 1; stroke-dasharray: none; stroke-linecap: butt; stroke-dashoffset: 0; stroke-linejoin: miter; stroke-miterlimit: 4; is-custom-font: none; font-file-url: none; fill: rgb(255,255,255); fill-rule: nonzero; opacity: 1;" transform=" translate(-24, -24)" d="M 24 31 c -3.859 0 -7 -3.14 -7 -7 s 3.141 -7 7 -7 s 7 3.14 7 7 S 27.859 31 24 31 z M 24 19 c -2.757 0 -5 2.243 -5 5 s 2.243 5 5 5 s 5 -2.243 5 -5 S 26.757 19 24 19 z" stroke-linecap="round"/>
</g>
		<g transform="matrix(18.9394 0 0 18.9394 139.4687 -129.9989)" id="97364">
<circle style="stroke: none; stroke-width: 1; stroke-dasharray: none; stroke-linecap: butt; stroke-dashoffset: 0; stroke-linejoin: miter; stroke-miterlimit: 4; is-custom-font: none; font-file-url: none; fill: rgb(255,255,255); fill-rule: nonzero; opacity: 1;" cx="0" cy="0" r="1.5"/>
</g>
		<g transform="matrix(18.9394 0 0 18.9394 0.0001 5.103)" id="993524">
<path style="stroke: none; stroke-width: 1; stroke-dasharray: none; stroke-linecap: butt; stroke-dashoffset: 0; stroke-linejoin: miter; stroke-miterlimit: 4; is-custom-font: none; font-file-url: none; fill: rgb(255,255,255); fill-rule: nonzero; opacity: 1;" transform=" translate(-24, -24)" d="M 30 37 H 18 c -3.859 0 -7 -3.14 -7 -7 V 18 c 0 -3.86 3.141 -7 7 -7 h 12 c 3.859 0 7 3.14 7 7 v 12 C 37 33.86 33.859 37 30 37 z M 18 13 c -2.757 0 -5 2.243 -5 5 v 12 c 0 2.757 2.243 5 5 5 h 12 c 2.757 0 5 -2.243 5 -5 V 18 c 0 -2.757 -2.243 -5 -5 -5 H 18 z" stroke-linecap="round"/>
</g>
</g>
</g>
</svg>